# xmcd CD database file
#
# Track frame offsets:
#	150
#	18102
#	34213
#	48415
#	62844
#	77138
#	89733
#	101773
#	115657
#	128696
#	142587
#	154539
#	168874
#	179282
#	193794
#	207037
#	219098
#
# Disc length: 3083 seconds
#
# Revision: 1
# Processed by: cddbd v1.5.2PL0 Copyright (c) Steve Scherf et al.
# Submitted via: CDex 1.70beta3
#
DISCID=d80c0911
DTITLE=John Lee Hooker - Boogie Chillen
DYEAR=0
DGENRE=Blues
TTITLE0=Wednesday Evening Blues
TTITLE1=My First Wife Left Me
TTITLE2=Boogie Chillen
TTITLE3=Sally Mae
TTITLE4=Henry's Swing Club
TTITLE5=Hobo Blues
TTITLE6=Crawilng King Snake
TTITLE7=Alberta
TTITLE8=Do My Baby Think Of Me
TTITLE9=Three Long Years Today
TTITLE10=Strike Blues
TTITLE11=Grinder Man
TTITLE12=Walkin' This Highway
TTITLE13=Four Women In My Life
TTITLE14=I Need Lovin'
TTITLE15=Find Me A Woman
TTITLE16=I'm In The Mood
EXTD=YEAR: 0
EXTT0=
EXTT1=
EXTT2=
EXTT3=
EXTT4=
EXTT5=
EXTT6=
EXTT7=
EXTT8=
EXTT9=
EXTT10=
EXTT11=
EXTT12=
EXTT13=
EXTT14=
EXTT15=
EXTT16=
PLAYORDER=
